<?xml version="1.0" encoding="UTF-8"?>
<svg xmlns="http://www.w3.org/2000/svg" viewBox="0 0 96 96">
  <defs>
    <style>
      .cls-1 {
        fill: #fff;
      }
    </style>
  </defs>
  <g id="Layer_1" data-name="Layer 1">
    <rect x="3" y=".5" width="90" height="95" rx="30.83" ry="30.83"/>
  </g>
  <g id="Layer_2" data-name="Layer 2">
    <g>
      <path class="cls-1" d="M30.61,76.95c-3.4,0-6.11-.76-8.14-2.28-2.03-1.52-3.51-3.72-4.42-6.62-.92-2.89-1.37-6.37-1.37-10.43v-18.97c0-4.15.41-7.69,1.24-10.6.83-2.92,2.3-5.15,4.42-6.69,2.12-1.54,5.08-2.31,8.88-2.31,3.4,0,6.13.59,8.21,1.79,2.08,1.19,3.59,3.01,4.52,5.46.94,2.45,1.41,5.54,1.41,9.27v2.1h-7.1v-1.75c0-2.47-.16-4.49-.47-6.06-.31-1.56-.95-2.73-1.91-3.5-.96-.77-2.47-1.15-4.52-1.15-2.23,0-3.85.54-4.86,1.61-1.01,1.07-1.63,2.53-1.88,4.38-.25,1.84-.37,3.93-.37,6.27v21c0,2.71.19,4.97.57,6.79.38,1.82,1.11,3.17,2.18,4.06,1.07.89,2.59,1.33,4.56,1.33s3.49-.49,4.56-1.47c1.07-.98,1.81-2.43,2.21-4.34.4-1.91.6-4.29.6-7.14v-3.92h-6.9v-5.6h13.74v28.07h-4.76l-.74-6.51c-.71,2.1-1.83,3.83-3.35,5.18-1.52,1.35-3.62,2.03-6.3,2.03Z"/>
      <path class="cls-1" d="M66.33,76.88c-3.13,0-5.73-.7-7.81-2.1-2.08-1.4-3.65-3.34-4.72-5.81-1.07-2.47-1.7-5.34-1.88-8.61l6.7-1.89c.13,2.01.43,3.94.9,5.81.47,1.87,1.24,3.4,2.31,4.59,1.07,1.19,2.57,1.78,4.49,1.78s3.45-.57,4.46-1.71c1.01-1.14,1.51-2.79,1.51-4.93,0-2.57-.56-4.63-1.68-6.2-1.12-1.56-2.52-3.14-4.22-4.72l-9.11-8.4c-1.79-1.63-3.11-3.42-3.95-5.35-.85-1.94-1.27-4.33-1.27-7.18,0-4.15,1.14-7.37,3.42-9.66,2.28-2.29,5.38-3.43,9.32-3.43,2.14,0,4.03.29,5.66.88,1.63.58,2.99,1.48,4.09,2.69,1.09,1.21,1.97,2.74,2.61,4.58.65,1.84,1.08,4,1.31,6.48l-6.43,1.82c-.13-1.87-.4-3.58-.81-5.14-.4-1.56-1.11-2.82-2.11-3.78-1.01-.96-2.45-1.44-4.32-1.44s-3.34.52-4.39,1.58c-1.05,1.05-1.57,2.6-1.57,4.65,0,1.73.28,3.15.84,4.27.56,1.12,1.46,2.26,2.71,3.43l9.18,8.4c2.05,1.87,3.86,4.1,5.43,6.69,1.56,2.59,2.35,5.66,2.35,9.21,0,2.8-.56,5.21-1.68,7.25-1.12,2.03-2.65,3.58-4.59,4.65-1.94,1.07-4.19,1.61-6.74,1.61Z"/>
    </g>
  </g>
</svg>